<svg width="870" height="297" viewBox="0 0 870 297" fill="none" xmlns="http://www.w3.org/2000/svg">
<rect width="870" height="297" fill="white"/>
<path fill-rule="evenodd" clip-rule="evenodd" d="M567 178.621C567 220.025 604.286 255 667.946 255C767.072 255 818 209.28 818 118.379C818 76.4242 789.808 42 746.156 42C591.554 42 567 127.523 567 178.621Z" fill="#FFE17D"/>
<path d="M56 184C54.8667 184 53.9 183.667 53.1 183C52.3667 182.267 52 181.333 52 180.2V117.2C52 115.933 52.3667 114.933 53.1 114.2C53.8333 113.4 54.8333 113 56.1 113C57.3667 113 58.3667 113.4 59.1 114.2C59.8333 114.933 60.2 115.933 60.2 117.2V177H92.5C93.7 177 94.6333 177.3 95.3 177.9C95.9667 178.5 96.3 179.367 96.3 180.5C96.3 181.633 95.9667 182.5 95.3 183.1C94.6333 183.7 93.7 184 92.5 184H56Z" fill="black"/>
<path d="M185.284 179.3C185.551 179.833 185.684 180.4 185.684 181C185.684 182 185.284 182.833 184.484 183.5C183.751 184.167 182.851 184.5 181.784 184.5C180.117 184.5 178.951 183.7 178.284 182.1L171.184 165.9H133.484L126.284 182.1C125.617 183.7 124.451 184.5 122.784 184.5C121.717 184.5 120.784 184.167 119.984 183.5C119.184 182.767 118.784 181.9 118.784 180.9C118.784 180.367 118.917 179.833 119.184 179.3L147.784 115.7C148.184 114.767 148.784 114.067 149.584 113.6C150.384 113.133 151.251 112.9 152.184 112.9C153.184 112.9 154.084 113.167 154.884 113.7C155.684 114.167 156.284 114.833 156.684 115.7L185.284 179.3ZM136.484 159.1H168.184L152.284 123.2L136.484 159.1Z" fill="black"/>
<path d="M230.184 184.5C228.918 184.5 227.884 184.133 227.084 183.4C226.351 182.6 225.984 181.567 225.984 180.3V120.5H204.484C203.284 120.5 202.351 120.2 201.684 119.6C201.018 119 200.684 118.133 200.684 117C200.684 115.867 201.018 115 201.684 114.4C202.351 113.8 203.284 113.5 204.484 113.5H255.784C256.984 113.5 257.918 113.8 258.584 114.4C259.251 115 259.584 115.867 259.584 117C259.584 118.133 259.251 119 258.584 119.6C257.918 120.2 256.984 120.5 255.784 120.5H234.284V180.3C234.284 181.567 233.918 182.6 233.184 183.4C232.451 184.133 231.451 184.5 230.184 184.5Z" fill="black"/>
<path d="M292.995 184C291.728 184 290.695 183.633 289.895 182.9C289.161 182.167 288.795 181.2 288.795 180V117.5C288.795 116.3 289.161 115.333 289.895 114.6C290.695 113.867 291.728 113.5 292.995 113.5H330.395C331.595 113.5 332.528 113.8 333.195 114.4C333.861 115 334.195 115.833 334.195 116.9C334.195 117.967 333.861 118.8 333.195 119.4C332.528 120 331.595 120.3 330.395 120.3H296.895V144.8H328.395C329.595 144.8 330.528 145.1 331.195 145.7C331.861 146.3 332.195 147.133 332.195 148.2C332.195 149.267 331.861 150.1 331.195 150.7C330.528 151.3 329.595 151.6 328.395 151.6H296.895V177.2H330.395C331.595 177.2 332.528 177.5 333.195 178.1C333.861 178.633 334.195 179.467 334.195 180.6C334.195 181.667 333.861 182.5 333.195 183.1C332.528 183.7 331.595 184 330.395 184H292.995Z" fill="black"/>
<path d="M420.843 178.9C421.309 179.633 421.543 180.4 421.543 181.2C421.543 182.2 421.143 183.033 420.343 183.7C419.609 184.3 418.743 184.6 417.743 184.6C416.209 184.6 415.009 183.933 414.143 182.6L400.743 161.4C399.009 158.667 397.209 156.8 395.343 155.8C393.476 154.733 390.943 154.2 387.743 154.2H375.143V180.3C375.143 181.567 374.776 182.6 374.043 183.4C373.309 184.133 372.343 184.5 371.143 184.5C369.876 184.5 368.876 184.133 368.143 183.4C367.409 182.6 367.043 181.567 367.043 180.3V117.5C367.043 116.3 367.409 115.333 368.143 114.6C368.943 113.867 369.976 113.5 371.243 113.5H396.043C403.709 113.5 409.543 115.2 413.543 118.6C417.609 122 419.643 127 419.643 133.6C419.643 139.2 418.009 143.7 414.743 147.1C411.543 150.5 406.943 152.567 400.943 153.3C402.609 153.833 404.109 154.7 405.443 155.9C406.776 157.1 408.109 158.767 409.443 160.9L420.843 178.9ZM395.343 147.4C400.809 147.4 404.876 146.267 407.543 144C410.276 141.733 411.643 138.3 411.643 133.7C411.643 129.167 410.309 125.8 407.643 123.6C404.976 121.4 400.876 120.3 395.343 120.3H375.143V147.4H395.343Z" fill="black"/>
<path d="M515.756 179.3C516.023 179.833 516.156 180.4 516.156 181C516.156 182 515.756 182.833 514.956 183.5C514.223 184.167 513.323 184.5 512.256 184.5C510.59 184.5 509.423 183.7 508.756 182.1L501.656 165.9H463.956L456.756 182.1C456.09 183.7 454.923 184.5 453.256 184.5C452.189 184.5 451.256 184.167 450.456 183.5C449.656 182.767 449.256 181.9 449.256 180.9C449.256 180.367 449.389 179.833 449.656 179.3L478.256 115.7C478.656 114.767 479.256 114.067 480.056 113.6C480.856 113.133 481.723 112.9 482.656 112.9C483.656 112.9 484.556 113.167 485.356 113.7C486.156 114.167 486.756 114.833 487.156 115.7L515.756 179.3ZM466.956 159.1H498.656L482.756 123.2L466.956 159.1Z" fill="black"/>
<path d="M551.757 184C550.624 184 549.657 183.667 548.857 183C548.124 182.267 547.757 181.333 547.757 180.2V117.2C547.757 115.933 548.124 114.933 548.857 114.2C549.591 113.4 550.591 113 551.857 113C553.124 113 554.124 113.4 554.857 114.2C555.591 114.933 555.957 115.933 555.957 117.2V177H588.257C589.457 177 590.391 177.3 591.057 177.9C591.724 178.5 592.057 179.367 592.057 180.5C592.057 181.633 591.724 182.5 591.057 183.1C590.391 183.7 589.457 184 588.257 184H551.757Z" fill="black"/>
<path d="M681.5 181.6C681.833 182.067 682 182.467 682 182.8C682 183.333 681.8 183.8 681.4 184.2C681 184.6 680.533 184.8 680 184.8C679.467 184.8 678.967 184.567 678.5 184.1L668.4 172.9C665.6 176.833 662.267 179.8 658.4 181.8C654.533 183.733 650.4 184.7 646 184.7C639.733 184.7 634.6 183.1 630.6 179.9C626.667 176.7 624.7 172.4 624.7 167C624.7 162.733 626 158.933 628.6 155.6C631.267 152.2 635.333 148.7 640.8 145.1L642.4 144.1C639.2 140.567 636.867 137.6 635.4 135.2C634 132.8 633.3 130.133 633.3 127.2C633.3 122.6 634.767 119.067 637.7 116.6C640.7 114.067 644.433 112.8 648.9 112.8C653.233 112.8 656.667 113.967 659.2 116.3C661.8 118.633 663.1 121.867 663.1 126C663.1 129.6 661.967 132.733 659.7 135.4C657.433 138.067 653.667 141.2 648.4 144.8L667.7 166.3C670.367 160.7 671.9 153.867 672.3 145.8C672.367 145.067 672.6 144.467 673 144C673.467 143.533 673.967 143.3 674.5 143.3C675.1 143.3 675.567 143.5 675.9 143.9C676.3 144.3 676.5 144.9 676.5 145.7C676.033 155.1 674.033 163 670.5 169.4L681.5 181.6ZM637.8 127.2C637.8 129.733 638.433 132.033 639.7 134.1C640.967 136.1 643 138.667 645.8 141.8C650.6 138.533 653.967 135.8 655.9 133.6C657.833 131.4 658.8 129 658.8 126.4C658.8 123.533 657.9 121.233 656.1 119.5C654.3 117.7 651.9 116.8 648.9 116.8C645.633 116.8 642.967 117.767 640.9 119.7C638.833 121.567 637.8 124.067 637.8 127.2ZM646.1 180.8C649.967 180.8 653.6 179.933 657 178.2C660.4 176.4 663.3 173.633 665.7 169.9L645.1 147.1L643.6 148.1C637.933 151.767 634.067 155 632 157.8C629.933 160.6 628.9 163.7 628.9 167.1C628.9 171.433 630.467 174.8 633.6 177.2C636.733 179.6 640.9 180.8 646.1 180.8Z" fill="#878787"/>
<path d="M709.431 184.7C705.164 184.7 701.364 183.667 698.031 181.6C694.697 179.533 692.097 176.6 690.231 172.8C688.431 169 687.531 164.633 687.531 159.7C687.531 154.7 688.431 150.3 690.231 146.5C692.097 142.633 694.697 139.667 698.031 137.6C701.431 135.467 705.297 134.4 709.631 134.4C712.097 134.4 714.497 134.733 716.831 135.4C719.164 136 721.231 136.967 723.031 138.3C724.297 139.3 725.164 140.133 725.631 140.8C726.164 141.4 726.431 142.067 726.431 142.8C726.431 143.267 726.264 143.7 725.931 144.1C725.597 144.433 725.197 144.6 724.731 144.6C724.397 144.6 723.997 144.467 723.531 144.2C723.064 143.867 722.564 143.5 722.031 143.1C720.231 141.7 718.397 140.567 716.531 139.7C714.731 138.833 712.464 138.4 709.731 138.4C704.197 138.4 699.864 140.3 696.731 144.1C693.597 147.9 692.031 153.133 692.031 159.8C692.031 166.333 693.564 171.433 696.631 175.1C699.764 178.767 704.097 180.6 709.631 180.6C712.431 180.6 714.797 180.167 716.731 179.3C718.731 178.433 720.631 177.3 722.431 175.9C723.697 174.967 724.564 174.5 725.031 174.5C725.497 174.5 725.897 174.667 726.231 175C726.564 175.333 726.731 175.733 726.731 176.2C726.731 176.867 726.497 177.467 726.031 178C725.564 178.533 724.664 179.333 723.331 180.4C721.597 181.667 719.464 182.7 716.931 183.5C714.397 184.3 711.897 184.7 709.431 184.7Z" fill="#878787"/>
<path d="M755.29 184.7C751.024 184.7 747.257 183.667 743.99 181.6C740.724 179.533 738.19 176.6 736.39 172.8C734.59 169 733.69 164.567 733.69 159.5C733.69 154.5 734.59 150.1 736.39 146.3C738.19 142.5 740.724 139.567 743.99 137.5C747.257 135.433 751.024 134.4 755.29 134.4C759.557 134.4 763.324 135.433 766.59 137.5C769.857 139.567 772.39 142.5 774.19 146.3C775.99 150.1 776.89 154.5 776.89 159.5C776.89 164.567 775.99 169 774.19 172.8C772.39 176.6 769.857 179.533 766.59 181.6C763.324 183.667 759.557 184.7 755.29 184.7ZM755.19 180.6C760.724 180.6 764.957 178.8 767.89 175.2C770.89 171.533 772.39 166.3 772.39 159.5C772.39 152.9 770.857 147.767 767.79 144.1C764.79 140.367 760.624 138.5 755.29 138.5C749.957 138.5 745.757 140.367 742.69 144.1C739.69 147.767 738.19 152.9 738.19 159.5C738.19 166.3 739.657 171.533 742.59 175.2C745.59 178.8 749.79 180.6 755.19 180.6Z" fill="#878787"/>
</svg>
