<svg width="100px" height="58px" viewBox="0 0 100 58" version="1.1" xmlns="http://www.w3.org/2000/svg" xmlns:xlink="http://www.w3.org/1999/xlink">
  <g id="glint-logo">
      <rect id="Rectangle-6" fill="#FFE17D" x="0" y="17.6415705" width="99.9498314" height="26.0296931"></rect>
      <path d="M36.323198,57.2526381 L28.7235518,57.2526381 L28.7139398,57.2497791 C29.4342008,55.7536344 29.6827465,54.3727753 29.4595844,53.1071602 C28.7864397,49.2895671 25.5659731,47.8893085 19.798088,48.9063423 C19.8107806,48.896188 19.8234664,48.8860576 19.8361454,48.8759512 C16.5192385,49.2317118 13.5134593,48.4526265 10.818733,46.5386791 C7.84421272,44.4558976 6.01956529,41.5009775 5.34473596,37.6738301 C4.70907083,34.0687941 5.45824601,30.7745463 7.59228397,27.7909882 C9.72632193,24.80743 12.6470716,22.9888077 16.3546205,22.3350668 C16.7666985,22.2624063 17.1746217,22.2065429 17.5783904,22.1674765 L17.5701488,22.1207364 L31.1316227,19.7294826 L32.1756913,25.6506895 L28.6196422,26.2777169 C30.3950369,28.1377564 31.5246398,30.4397367 32.0084734,33.183693 C32.6682395,36.9254129 31.9311147,40.2880016 29.7970767,43.2715597 C29.1067306,44.2232046 28.3331087,45.0565474 27.4762081,45.7715898 C29.0126724,45.9031006 30.9433725,46.3154767 31.6865113,46.8100925 C33.261938,47.8586597 34.3864094,48.8369748 35.0599593,49.7450672 C35.7579154,50.6702489 36.2294426,51.8278734 36.474555,53.2179752 C36.6962407,54.4752169 36.6457892,55.8200981 36.323198,57.2526381 Z M11.276027,36.6869518 C11.7158712,39.1814318 12.7301485,41.0372841 14.3188895,42.2545647 C15.9448141,43.4829054 17.8768463,43.8997422 20.115044,43.5050875 C22.3703273,43.1074202 24.0447834,42.0634705 25.1384626,40.3732069 C26.2321418,38.6829433 26.5650796,36.6247734 26.137286,34.1986354 C25.7094925,31.7724973 24.6926977,29.9523217 23.0868712,28.7380538 C21.4609466,27.5097131 19.5289144,27.0928763 17.2907167,27.487531 C15.0866899,27.8761604 13.4308253,28.9256401 12.3230732,30.6360018 C11.2153211,32.3463635 10.8663092,34.3633267 11.276027,36.6869518 Z M37.5221527,0.584248387 L45.0879916,43.4922531 L39.2354945,44.5242062 L31.4876944,0.584248387 L37.5221527,0.584248387 Z M51.509653,16.2232919 L55.9788882,41.5695845 L50.1264438,42.6015284 L45.6572086,17.2552358 L51.509653,16.2232919 Z M46.7463712,6.79830241 L46.5476683,3.22002838 L49.2102877,3.22002838 L48.9983379,6.79830241 L52.3497941,5.49952147 L53.1710996,8.03081902 L49.7004216,8.93201396 L51.9656351,11.715116 L49.8196434,13.2789543 L47.8723545,10.2573006 L45.9383126,13.2789543 L43.779074,11.715116 L46.0575344,8.94526683 L42.5868563,8.03081902 L43.4081618,5.49952147 L46.7463712,6.79830241 Z M56.5708061,15.3331837 L62.4493143,14.2966441 L62.8622827,16.638704 C64.5505916,14.2481054 66.6779348,12.826561 69.244376,12.3740282 C72.1923152,11.854227 74.6535954,12.3772342 76.6282905,13.9430657 C78.3286103,15.2710678 79.4938338,17.721946 80.1239961,21.2957738 L82.8633528,36.8314377 L76.9848446,37.8679773 L74.4886804,23.7115264 C74.0481786,21.2133167 73.3969975,19.5483012 72.5351175,18.7164301 C71.6875193,17.8641526 70.3706878,17.5954871 68.5845835,17.9104255 C66.6424118,18.2528828 65.3770201,19.1378541 64.7883706,20.5653661 C64.2140029,21.9724717 64.2051918,24.25472 64.7619371,27.4121795 L66.9185496,39.6429367 L61.0400414,40.6794763 L56.5708061,15.3331837 Z M81.6902876,1.34057736 L81.5733399,0.590742502 L87.5917519,0.590742502 L87.7247459,1.34057736 L89.1782163,9.58361752 L93.7301585,8.7809873 L94.6937513,14.2457937 L90.1418091,15.0484239 L93.6474516,34.9299101 L87.7949545,35.9618633 L84.289312,16.0803771 L81.7922466,16.5206771 L80.8286538,11.0558707 L83.3257192,10.6155707 L81.6902876,1.34057736 Z" id="glint-copy-11" fill="#303030"></path>
  </g>
</svg>
